<mxfile host="Electron" agent="Mozilla/5.0 (Windows NT 10.0; Win64; x64) AppleWebKit/537.36 (KHTML, like Gecko) draw.io/26.2.2 Chrome/134.0.6998.178 Electron/35.1.2 Safari/537.36" version="26.2.2">
  <diagram name="Страница — 1" id="XbnxaTYEIpB577MFsnea">
    <mxGraphModel dx="2040" dy="1213" grid="1" gridSize="10" guides="1" tooltips="1" connect="1" arrows="1" fold="1" page="1" pageScale="1" pageWidth="827" pageHeight="1169" math="0" shadow="0">
      <root>
        <mxCell id="0" />
        <mxCell id="1" parent="0" />
        <mxCell id="UQ7ExxEdJwfkP7KIrIeh-29" value="" style="html=1;whiteSpace=wrap;" vertex="1" parent="1">
          <mxGeometry x="160" y="290" width="1070" height="450" as="geometry" />
        </mxCell>
        <mxCell id="UQ7ExxEdJwfkP7KIrIeh-30" value="Подлежащее отмене" style="html=1;whiteSpace=wrap;fillColor=#d5e8d4;strokeColor=#82b366;" vertex="1" parent="1">
          <mxGeometry x="160" y="250" width="1070" height="40" as="geometry" />
        </mxCell>
        <mxCell id="UQ7ExxEdJwfkP7KIrIeh-33" style="edgeStyle=orthogonalEdgeStyle;rounded=0;orthogonalLoop=1;jettySize=auto;html=1;entryX=0;entryY=0.25;entryDx=0;entryDy=0;" edge="1" parent="1" source="UQ7ExxEdJwfkP7KIrIeh-7" target="UQ7ExxEdJwfkP7KIrIeh-11">
          <mxGeometry relative="1" as="geometry" />
        </mxCell>
        <mxCell id="UQ7ExxEdJwfkP7KIrIeh-7" value="" style="ellipse;html=1;shape=endState;fillColor=#000000;strokeColor=#ff0000;" vertex="1" parent="1">
          <mxGeometry x="86" y="436" width="30" height="30" as="geometry" />
        </mxCell>
        <mxCell id="UQ7ExxEdJwfkP7KIrIeh-11" value="выполнение / Проверка ответа" style="html=1;whiteSpace=wrap;" vertex="1" parent="1">
          <mxGeometry x="220" y="440" width="220" height="45" as="geometry" />
        </mxCell>
        <mxCell id="UQ7ExxEdJwfkP7KIrIeh-17" value="Создан" style="html=1;whiteSpace=wrap;fillColor=#d5e8d4;strokeColor=#82b366;" vertex="1" parent="1">
          <mxGeometry x="220" y="405" width="220" height="35" as="geometry" />
        </mxCell>
        <mxCell id="UQ7ExxEdJwfkP7KIrIeh-35" style="edgeStyle=orthogonalEdgeStyle;rounded=0;orthogonalLoop=1;jettySize=auto;html=1;exitX=0.5;exitY=1;exitDx=0;exitDy=0;" edge="1" parent="1" source="UQ7ExxEdJwfkP7KIrIeh-29" target="UQ7ExxEdJwfkP7KIrIeh-22">
          <mxGeometry relative="1" as="geometry" />
        </mxCell>
        <mxCell id="UQ7ExxEdJwfkP7KIrIeh-36" style="edgeStyle=orthogonalEdgeStyle;rounded=0;orthogonalLoop=1;jettySize=auto;html=1;" edge="1" parent="1" source="UQ7ExxEdJwfkP7KIrIeh-18">
          <mxGeometry relative="1" as="geometry">
            <mxPoint x="1030" y="469.9999999999998" as="targetPoint" />
          </mxGeometry>
        </mxCell>
        <mxCell id="UQ7ExxEdJwfkP7KIrIeh-18" value="вход / Начать разработку предмета&lt;div&gt;выполнение / Вывести информацию о проделываемой работе&lt;/div&gt;&lt;div&gt;выход / Завершить разработку предмета&lt;/div&gt;" style="html=1;whiteSpace=wrap;align=left;spacingLeft=10;" vertex="1" parent="1">
          <mxGeometry x="510" y="545" width="380" height="95" as="geometry" />
        </mxCell>
        <mxCell id="UQ7ExxEdJwfkP7KIrIeh-19" value="В разработке" style="html=1;whiteSpace=wrap;fillColor=#d5e8d4;strokeColor=#82b366;" vertex="1" parent="1">
          <mxGeometry x="510" y="510" width="380" height="35" as="geometry" />
        </mxCell>
        <mxCell id="UQ7ExxEdJwfkP7KIrIeh-21" value="" style="html=1;whiteSpace=wrap;" vertex="1" parent="1">
          <mxGeometry x="586" y="826" width="220" height="25" as="geometry" />
        </mxCell>
        <mxCell id="UQ7ExxEdJwfkP7KIrIeh-22" value="Отменен" style="html=1;whiteSpace=wrap;fillColor=#d5e8d4;strokeColor=#82b366;" vertex="1" parent="1">
          <mxGeometry x="586" y="791" width="220" height="35" as="geometry" />
        </mxCell>
        <mxCell id="UQ7ExxEdJwfkP7KIrIeh-37" style="edgeStyle=orthogonalEdgeStyle;rounded=0;orthogonalLoop=1;jettySize=auto;html=1;entryX=0;entryY=0.5;entryDx=0;entryDy=0;" edge="1" parent="1" source="UQ7ExxEdJwfkP7KIrIeh-23" target="UQ7ExxEdJwfkP7KIrIeh-32">
          <mxGeometry relative="1" as="geometry" />
        </mxCell>
        <mxCell id="UQ7ExxEdJwfkP7KIrIeh-23" value="выход / Сохранить дату принятия" style="html=1;whiteSpace=wrap;" vertex="1" parent="1">
          <mxGeometry x="940" y="422.5" width="220" height="45" as="geometry" />
        </mxCell>
        <mxCell id="UQ7ExxEdJwfkP7KIrIeh-24" value="Принят" style="html=1;whiteSpace=wrap;fillColor=#d5e8d4;strokeColor=#82b366;" vertex="1" parent="1">
          <mxGeometry x="940" y="387.5" width="220" height="35" as="geometry" />
        </mxCell>
        <mxCell id="UQ7ExxEdJwfkP7KIrIeh-27" value="выход / Сохранять дату отклонения" style="html=1;whiteSpace=wrap;" vertex="1" parent="1">
          <mxGeometry x="630" y="115" width="220" height="45" as="geometry" />
        </mxCell>
        <mxCell id="UQ7ExxEdJwfkP7KIrIeh-28" value="Отклонен" style="html=1;whiteSpace=wrap;fillColor=#d5e8d4;strokeColor=#82b366;" vertex="1" parent="1">
          <mxGeometry x="630" y="80" width="220" height="35" as="geometry" />
        </mxCell>
        <mxCell id="UQ7ExxEdJwfkP7KIrIeh-32" value="" style="ellipse;html=1;shape=endState;fillColor=#000000;strokeColor=#ff0000;" vertex="1" parent="1">
          <mxGeometry x="1330" y="430" width="30" height="30" as="geometry" />
        </mxCell>
        <mxCell id="UQ7ExxEdJwfkP7KIrIeh-34" style="edgeStyle=orthogonalEdgeStyle;rounded=0;orthogonalLoop=1;jettySize=auto;html=1;entryX=0.002;entryY=0.156;entryDx=0;entryDy=0;entryPerimeter=0;" edge="1" parent="1" source="UQ7ExxEdJwfkP7KIrIeh-11" target="UQ7ExxEdJwfkP7KIrIeh-18">
          <mxGeometry relative="1" as="geometry" />
        </mxCell>
        <mxCell id="UQ7ExxEdJwfkP7KIrIeh-38" style="edgeStyle=orthogonalEdgeStyle;rounded=0;orthogonalLoop=1;jettySize=auto;html=1;" edge="1" parent="1" source="UQ7ExxEdJwfkP7KIrIeh-19" target="UQ7ExxEdJwfkP7KIrIeh-27">
          <mxGeometry relative="1" as="geometry">
            <Array as="points">
              <mxPoint x="560" y="140" />
            </Array>
          </mxGeometry>
        </mxCell>
        <mxCell id="UQ7ExxEdJwfkP7KIrIeh-39" value="[Причина != NULL]&lt;div&gt;Запрос на отклонение&lt;/div&gt;" style="edgeLabel;html=1;align=center;verticalAlign=middle;resizable=0;points=[];" vertex="1" connectable="0" parent="UQ7ExxEdJwfkP7KIrIeh-38">
          <mxGeometry x="-0.4293" relative="1" as="geometry">
            <mxPoint as="offset" />
          </mxGeometry>
        </mxCell>
      </root>
    </mxGraphModel>
  </diagram>
</mxfile>
